 <svg width="205" height="87" viewBox="0 0 205 87" fill="none" xmlns="http://www.w3.org/2000/svg">
<path d="M16.8762 7.74512H18.0237C18.2841 8.55892 18.7154 9.13672 19.3176 9.47852C20.0989 9.93424 21.3684 10.1621 23.1262 10.1621C24.2493 10.1621 27.8137 10.0482 33.8196 9.82031C37.4491 9.67383 39.7115 9.60059 40.6067 9.60059C43.3085 9.60059 45.6034 10.0645 47.4915 10.9922C49.3958 11.9199 50.942 13.3441 52.1301 15.2646C53.3183 17.1852 54.1077 19.8301 54.4983 23.1992C54.775 25.5592 55.011 30.7594 55.2063 38.7998C52.0325 40.8018 49.5911 42.5352 47.8821 44C42.7063 42.5514 38.1409 41.8271 34.1858 41.8271C31.5002 41.8271 29.01 42.1527 26.7151 42.8037C24.4202 43.4385 21.9869 44.4639 19.4153 45.8799L18.7073 44.9521C22.0439 43.2269 24.9736 41.4609 27.4963 39.6543C30.0191 37.8477 31.6793 36.2363 32.4768 34.8203C33.2906 33.388 33.6975 31.5732 33.6975 29.376C33.6975 28.5785 33.6812 27.3984 33.6487 25.8359C33.6161 24.7454 33.5999 23.6143 33.5999 22.4424C33.5999 20.3753 33.7138 18.8535 33.9417 17.877C34.1858 16.9004 34.6903 15.7773 35.4553 14.5078H34.8206C32.8349 15.6471 31.5084 16.6888 30.8411 17.6328C30.19 18.5605 29.8645 19.7487 29.8645 21.1973L30.0598 29.8643C30.0598 32.1755 29.3681 34.2507 27.9846 36.0898C26.6012 37.9128 23.2808 40.5495 18.0237 44L17.3157 43.0479C19.9687 41.1924 21.7183 39.6706 22.5647 38.4824C23.4111 37.2943 23.8342 36.0492 23.8342 34.7471C23.8342 33.624 23.4762 32.6719 22.76 31.8906C22.0439 31.0931 21.2545 30.6943 20.3918 30.6943C19.9524 30.6943 19.5455 30.8164 19.1711 31.0605C18.7968 31.3047 18.2922 31.8092 17.6575 32.5742L16.8762 31.793C17.4296 30.3932 18.162 29.3678 19.0735 28.7168C20.0012 28.0658 21.108 27.7402 22.3938 27.7402C22.7681 27.7402 23.175 27.7809 23.6145 27.8623C24.0702 27.9437 24.5585 28.0658 25.0793 28.2285C25.0468 27.2845 25.0305 26.4626 25.0305 25.7627C25.0305 23.2074 25.5432 21.1322 26.5686 19.5371C27.6103 17.9258 29.5959 16.2493 32.5256 14.5078C29.8401 14.7845 27.5208 14.9229 25.5676 14.9229C23.5006 14.9229 21.7265 14.6299 20.2454 14.0439C19.1386 13.5882 18.3248 12.8639 17.804 11.8711C17.2831 10.862 16.9739 9.48665 16.8762 7.74512ZM36.6516 14.5078C35.9517 15.696 35.4797 16.7295 35.2356 17.6084C34.9101 18.8128 34.7473 19.9359 34.7473 20.9775L34.9426 30.5967C34.9426 31.8337 34.6334 33.0951 34.0149 34.3809C33.5429 35.3411 32.6558 36.513 31.3538 37.8965C33.7301 37.5059 35.5448 37.3187 36.7981 37.335L38.1897 37.3594V14.5078H36.6516ZM39.4348 23.8828C40.4277 24.5827 41.2903 25.0628 42.0227 25.3232C42.7714 25.5837 43.5771 25.7139 44.4397 25.7139C45.3023 25.7139 46.108 25.5837 46.8567 25.3232C47.6054 25.0465 48.4843 24.5664 49.4934 23.8828C49.1842 20.2207 48.2402 17.7467 46.6614 16.4609C45.0826 15.1589 42.6737 14.5078 39.4348 14.5078V23.8828ZM39.4348 31.9395C40.5416 31.3047 41.4856 30.8734 42.2668 30.6455C43.0481 30.4014 43.9026 30.2793 44.8303 30.2793C45.7255 30.2793 46.5556 30.3932 47.3206 30.6211C48.0855 30.8327 49.0051 31.2396 50.0793 31.8418L49.6643 25.2256C48.6226 25.8604 47.7193 26.2998 46.9543 26.5439C46.2056 26.7718 45.3837 26.8857 44.4885 26.8857C43.6259 26.8857 42.7714 26.7474 41.925 26.4707C41.0787 26.194 40.2486 25.779 39.4348 25.2256V31.9395ZM39.4348 37.4326C41.4205 37.5954 43.0318 37.7988 44.2688 38.043C45.5221 38.2708 47.4752 38.7591 50.1282 39.5078C50.1607 37.0501 50.177 35.7806 50.177 35.6992C50.177 35.5039 50.1607 34.7227 50.1282 33.3555C49.0865 32.6393 48.1669 32.1429 47.3694 31.8662C46.5881 31.5895 45.7336 31.4512 44.8059 31.4512C43.8619 31.4512 42.983 31.5895 42.1692 31.8662C41.3717 32.1429 40.4602 32.6393 39.4348 33.3555V37.4326ZM70.5139 17.9746L77.3987 26.0068L66.4612 33.6729V38.1162L72.1252 40.3623L75.9583 37.75L76.4954 38.4824L68.5852 44C66.9739 43.1374 65.6474 42.5189 64.6057 42.1445C63.564 41.7702 62.0829 41.3796 60.1624 40.9727V40.3623C60.7157 40.0368 61.0819 39.638 61.261 39.166C61.4563 38.6777 61.554 37.6361 61.554 36.041V22.0762C63.0839 21.5228 64.3534 21.0182 65.3625 20.5625C66.095 20.2207 67.8121 19.3581 70.5139 17.9746ZM66.803 20.7822L66.4612 20.9531V32.0127L72.8821 27.5205L66.803 20.7822ZM112.018 19.3906L112.726 20.0498C111.798 20.8636 111.171 21.5146 110.846 22.0029C110.537 22.4912 110.333 22.9795 110.236 23.4678C110.138 23.9561 110.089 24.957 110.089 26.4707V36.627C110.089 37.9616 110.227 38.8486 110.504 39.2881C110.781 39.7275 111.041 39.9473 111.285 39.9473C111.627 39.9473 112.221 39.6217 113.068 38.9707L113.629 39.6787L108.209 44C107.005 43.056 106.224 42.2747 105.865 41.6562C105.345 40.7448 105.084 39.7764 105.084 38.751V24.0293L102.618 21.9053L98.7122 25.5186V38.751L100.568 40.7285L96.2952 44L91.9739 40.7285L93.7561 38.751V26.6172C93.7561 25.2012 93.6503 24.2897 93.4387 23.8828C93.1458 23.3294 92.4377 22.6702 91.3147 21.9053L87.4573 25.1523V38.751L89.3372 40.7285L85.0403 44L80.6702 40.7285L82.5745 38.751V25.6895C82.5745 24.3385 82.3873 23.362 82.0129 22.7598C81.72 22.304 81.4514 22.0762 81.2073 22.0762C80.9143 22.0762 80.3202 22.4098 79.425 23.0771L78.8879 22.2715L84.2102 17.9746C85.317 18.7559 86.0657 19.3988 86.4563 19.9033C86.8632 20.3916 87.148 20.9287 87.3108 21.5146C87.4084 21.9378 87.4573 22.776 87.4573 24.0293L94.7327 17.9746C96.3277 19.2441 97.3694 20.2939 97.8577 21.124C98.3459 21.9541 98.6308 23.012 98.7122 24.2979L105.573 17.9746L109.576 21.71L112.018 19.3906ZM133.893 21.5391V39.8008C131.451 40.7936 129.685 41.6074 128.595 42.2422C127.765 42.7142 126.967 43.3001 126.202 44C123.842 42.5677 121.889 41.5749 120.343 41.0215C119.171 40.5983 117.845 40.3542 116.364 40.2891L116.119 39.8008C116.738 39.2799 117.128 38.8079 117.291 38.3848C117.519 37.8314 117.633 36.8955 117.633 35.5771V22.1738C120.612 21.181 123.159 19.7812 125.275 17.9746C127.586 19.5046 130.459 20.6927 133.893 21.5391ZM122.565 37.4326L128.937 40.0449V24.5176C126.935 23.5898 125.519 22.9795 124.689 22.6865C124.103 22.4749 123.395 22.2959 122.565 22.1494V37.4326Z" fill="white"/>
<path d="M16.8762 7.74512V6.74512H15.8186L15.8778 7.8011L16.8762 7.74512ZM18.0237 7.74512L18.9761 7.44034L18.7536 6.74512H18.0237V7.74512ZM19.3176 9.47852L19.8215 8.61468L19.8112 8.60883L19.3176 9.47852ZM33.8196 9.82031L33.8575 10.8196L33.8599 10.8195L33.8196 9.82031ZM47.4915 10.9922L47.0504 11.8897L47.0535 11.8912L47.4915 10.9922ZM54.4983 23.1992L53.5049 23.3144L53.5051 23.3157L54.4983 23.1992ZM55.2063 38.7998L55.7398 39.6456L56.2198 39.3428L56.206 38.7755L55.2063 38.7998ZM47.8821 44L47.6126 44.963L48.1272 45.107L48.5329 44.7593L47.8821 44ZM26.7151 42.8037L26.9817 43.7675L26.988 43.7657L26.7151 42.8037ZM19.4153 45.8799L18.6203 46.4866L19.143 47.1714L19.8976 46.7559L19.4153 45.8799ZM18.7073 44.9521L18.248 44.0639L17.1892 44.6113L17.9123 45.5588L18.7073 44.9521ZM27.4963 39.6543L26.9141 38.8413L27.4963 39.6543ZM32.4768 34.8203L31.6073 34.3263L31.6055 34.3296L32.4768 34.8203ZM33.6487 25.8359L34.6485 25.8151L34.6482 25.8061L33.6487 25.8359ZM33.9417 17.877L32.9715 17.6344L32.9696 17.6421L32.9678 17.6497L33.9417 17.877ZM35.4553 14.5078L36.3118 15.0239L37.2254 13.5078H35.4553V14.5078ZM34.8206 14.5078V13.5078H34.554L34.3229 13.6404L34.8206 14.5078ZM30.8411 17.6328L30.0245 17.0556L30.0225 17.0584L30.8411 17.6328ZM29.8645 21.1973H28.8645V21.2085L28.8648 21.2198L29.8645 21.1973ZM30.0598 29.8643H31.0598V29.853L31.0596 29.8417L30.0598 29.8643ZM27.9846 36.0898L28.7812 36.6944L28.7838 36.691L27.9846 36.0898ZM18.0237 44L17.2212 44.5967L17.784 45.3535L18.5724 44.836L18.0237 44ZM17.3157 43.0479L16.7425 42.2284L15.8989 42.8184L16.5132 43.6446L17.3157 43.0479ZM22.76 31.8906L22.0159 32.5588L22.0229 32.5663L22.76 31.8906ZM19.1711 31.0605L18.6249 30.2229L19.1711 31.0605ZM17.6575 32.5742L16.9504 33.2813L17.7263 34.0573L18.427 33.2128L17.6575 32.5742ZM16.8762 31.793L15.9463 31.4253L15.7049 32.0358L16.1691 32.5001L16.8762 31.793ZM19.0735 28.7168L18.499 27.8982L18.4922 27.9031L19.0735 28.7168ZM23.6145 27.8623L23.4324 28.8456L23.4387 28.8467L23.6145 27.8623ZM25.0793 28.2285L24.7811 29.183L26.1274 29.6037L26.0788 28.1941L25.0793 28.2285ZM26.5686 19.5371L25.7288 18.9942L25.7274 18.9964L26.5686 19.5371ZM32.5256 14.5078L33.0366 15.3674L32.4231 13.5131L32.5256 14.5078ZM20.2454 14.0439L19.8646 14.9687L19.8775 14.9738L20.2454 14.0439ZM17.804 11.8711L16.9153 12.3297L16.9184 12.3356L17.804 11.8711ZM36.6516 14.5078V13.5078H36.0801L35.79 14.0003L36.6516 14.5078ZM35.2356 17.6084L34.2721 17.3407L34.2702 17.3475L35.2356 17.6084ZM34.7473 20.9775H33.7473V20.9877L33.7475 20.9978L34.7473 20.9775ZM34.9426 30.5967H35.9426V30.5865L35.9424 30.5764L34.9426 30.5967ZM34.0149 34.3809L34.9124 34.822L34.9161 34.8143L34.0149 34.3809ZM31.3538 37.8965L30.6256 37.2111L28.6008 39.3624L31.516 38.8832L31.3538 37.8965ZM36.7981 37.335L36.8156 36.3351L36.8111 36.335L36.7981 37.335ZM38.1897 37.3594L38.1722 38.3592L39.1897 38.3771V37.3594H38.1897ZM38.1897 14.5078H39.1897V13.5078H38.1897V14.5078ZM39.4348 23.8828H38.4348V24.4014L38.8587 24.7002L39.4348 23.8828ZM42.0227 25.3232L41.6877 26.2655L41.6942 26.2677L42.0227 25.3232ZM46.8567 25.3232L47.1852 26.2677L47.1943 26.2646L47.2033 26.2612L46.8567 25.3232ZM49.4934 23.8828L50.0543 24.7107L50.5391 24.3823L50.4899 23.7987L49.4934 23.8828ZM46.6614 16.4609L46.0251 17.2324L46.0299 17.2363L46.6614 16.4609ZM39.4348 14.5078V13.5078H38.4348V14.5078H39.4348ZM39.4348 31.9395H38.4348V33.6658L39.9323 32.8069L39.4348 31.9395ZM42.2668 30.6455L42.5468 31.6055L42.556 31.6028L42.5651 31.6L42.2668 30.6455ZM47.3206 30.6211L47.0351 31.5795L47.0445 31.5823L47.054 31.5849L47.3206 30.6211ZM50.0793 31.8418L49.5903 32.7141L51.1924 33.6122L51.0774 31.7792L50.0793 31.8418ZM49.6643 25.2256L50.6623 25.163L50.5586 23.5096L49.1439 24.3716L49.6643 25.2256ZM46.9543 26.5439L47.2455 27.5007L47.2584 27.4966L46.9543 26.5439ZM39.4348 25.2256L39.9971 24.3987L38.4348 23.3363V25.2256H39.4348ZM39.4348 37.4326H38.4348V38.354L39.3531 38.4293L39.4348 37.4326ZM44.2688 38.043L44.0752 39.024L44.0825 39.0255L44.0899 39.0268L44.2688 38.043ZM50.1282 39.5078L49.8566 40.4702L51.1108 40.8242L51.1281 39.5211L50.1282 39.5078ZM50.1282 33.3555L51.1279 33.3317L51.1157 32.8209L50.6947 32.5314L50.1282 33.3555ZM47.3694 31.8662L47.0355 32.8089L47.0416 32.811L47.3694 31.8662ZM42.1692 31.8662L41.8473 30.9194L41.8414 30.9215L42.1692 31.8662ZM39.4348 33.3555L38.8622 32.5356L38.4348 32.8341V33.3555H39.4348ZM16.8762 8.74512H18.0237V6.74512H16.8762V8.74512ZM17.0713 8.04989C17.3895 9.04429 17.9551 9.85504 18.824 10.3482L19.8112 8.60883C19.4757 8.4184 19.1787 8.07355 18.9761 7.44034L17.0713 8.04989ZM18.8138 10.3423C19.8345 10.9377 21.3297 11.1621 23.1262 11.1621V9.16211C21.4071 9.16211 20.3633 8.93078 19.8215 8.61474L18.8138 10.3423ZM23.1262 11.1621C24.2733 11.1621 27.8622 11.0471 33.8575 10.8196L33.7817 8.82103C27.7652 9.0493 24.2252 9.16211 23.1262 9.16211V11.1621ZM33.8599 10.8195C37.4972 10.6727 39.7363 10.6006 40.6067 10.6006V8.60059C39.6867 8.60059 37.4011 8.67495 33.7793 8.82113L33.8599 10.8195ZM40.6067 10.6006C43.1977 10.6006 45.333 11.0458 47.0504 11.8897L47.9325 10.0947C45.8739 9.08315 43.4194 8.60059 40.6067 8.60059V10.6006ZM47.0535 11.8912C48.7764 12.7306 50.1842 14.0199 51.2797 15.7908L52.9805 14.7385C51.6998 12.6683 50.0151 11.1093 47.9294 10.0932L47.0535 11.8912ZM51.2797 15.7908C52.3618 17.5398 53.1235 20.0244 53.5049 23.3144L55.4916 23.084C55.0918 19.6358 54.2748 16.8306 52.9805 14.7385L51.2797 15.7908ZM53.5051 23.3157C53.7754 25.6208 54.011 30.7719 54.2066 38.8241L56.206 38.7755C56.011 30.747 55.7746 25.4977 55.4915 23.0828L53.5051 23.3157ZM54.6728 37.954C51.4811 39.9673 48.9934 41.7303 47.2313 43.2407L48.5329 44.7593C50.1887 43.34 52.5839 41.6363 55.7398 39.6456L54.6728 37.954ZM48.1516 43.037C42.9172 41.572 38.2579 40.8271 34.1858 40.8271V42.8271C38.0238 42.8271 42.4954 43.5308 47.6126 44.963L48.1516 43.037ZM34.1858 40.8271C31.4194 40.8271 28.8362 41.1625 26.4422 41.8417L26.988 43.7657C29.1838 43.1428 31.5811 42.8271 34.1858 42.8271V40.8271ZM26.4485 41.8399C24.0635 42.4996 21.5577 43.5586 18.9329 45.0039L19.8976 46.7559C22.4161 45.3691 24.7768 44.3774 26.9817 43.7675L26.4485 41.8399ZM20.2102 45.2732L19.5022 44.3455L17.9123 45.5588L18.6203 46.4866L20.2102 45.2732ZM19.1666 45.8404C22.5373 44.0975 25.5095 42.3071 28.0786 40.4673L26.9141 38.8413C24.4376 40.6148 21.5504 42.3563 18.248 44.0639L19.1666 45.8404ZM28.0786 40.4673C30.6313 38.6392 32.4398 36.9237 33.3481 35.3111L31.6055 34.3296C30.9187 35.5489 29.4069 37.0561 26.9141 38.8413L28.0786 40.4673ZM33.3463 35.3143C34.2695 33.6894 34.6975 31.6906 34.6975 29.376H32.6975C32.6975 31.4559 32.3117 33.0867 31.6074 34.3263L33.3463 35.3143ZM34.6975 29.376C34.6975 28.5677 34.6811 27.3793 34.6485 25.8151L32.6489 25.8568C32.6814 27.4176 32.6975 28.5892 32.6975 29.376H34.6975ZM34.6482 25.8061C34.616 24.7262 34.5999 23.605 34.5999 22.4424H32.5999C32.5999 23.6235 32.6163 24.7646 32.6491 25.8658L34.6482 25.8061ZM34.5999 22.4424C34.5999 20.389 34.7151 18.9632 34.9155 18.1042L32.9678 17.6497C32.7125 18.7439 32.5999 20.3616 32.5999 22.4424H34.5999ZM34.9118 18.1195C35.1234 17.2731 35.5763 16.2446 36.3118 15.0239L34.5988 13.9917C33.8044 15.3101 33.2482 16.5277 32.9715 17.6344L34.9118 18.1195ZM35.4553 13.5078H34.8206V15.5078H35.4553V13.5078ZM34.3229 13.6404C32.3109 14.7948 30.8235 15.9253 30.0245 17.0556L31.6576 18.21C32.1933 17.4523 33.3588 16.4994 35.3182 15.3752L34.3229 13.6404ZM30.0225 17.0584C29.2243 18.1958 28.8645 19.6003 28.8645 21.1973H30.8645C30.8645 19.8971 31.1557 18.9253 31.6596 18.2072L30.0225 17.0584ZM28.8648 21.2198L29.0601 29.8868L31.0596 29.8417L30.8642 21.1747L28.8648 21.2198ZM29.0598 29.8643C29.0598 31.9596 28.438 33.8236 27.1855 35.4887L28.7838 36.691C30.2982 34.6777 31.0598 32.3913 31.0598 29.8643H29.0598ZM27.188 35.4853C25.9236 37.1514 22.7485 39.7027 17.475 43.164L18.5724 44.836C23.8132 41.3962 27.2787 38.6741 28.7812 36.6944L27.188 35.4853ZM18.8261 43.4033L18.1181 42.4511L16.5132 43.6446L17.2212 44.5967L18.8261 43.4033ZM17.8888 43.8673C20.5494 42.0065 22.4251 40.4019 23.3792 39.0626L21.7502 37.9022C21.0115 38.9392 19.388 40.3782 16.7425 42.2284L17.8888 43.8673ZM23.3792 39.0626C24.3311 37.7263 24.8342 36.2818 24.8342 34.7471H22.8342C22.8342 35.8165 22.4911 36.8622 21.7502 37.9022L23.3792 39.0626ZM24.8342 34.7471C24.8342 33.3902 24.3931 32.1923 23.4972 31.2149L22.0229 32.5663C22.5592 33.1515 22.8342 33.8579 22.8342 34.7471H24.8342ZM23.5041 31.2225C22.6478 30.2689 21.6049 29.6943 20.3918 29.6943V31.6943C20.904 31.6943 21.4399 31.9173 22.016 32.5588L23.5041 31.2225ZM20.3918 29.6943C19.7549 29.6943 19.1588 29.8747 18.6249 30.2229L19.7174 31.8982C19.9322 31.7581 20.1498 31.6943 20.3918 31.6943V29.6943ZM18.6249 30.2229C18.1141 30.5561 17.528 31.1643 16.8879 31.9356L18.427 33.2128C19.0565 32.4542 19.4795 32.0533 19.7174 31.8982L18.6249 30.2229ZM18.3646 31.8671L17.5833 31.0859L16.1691 32.5001L16.9504 33.2813L18.3646 31.8671ZM17.8062 32.1606C18.3125 30.88 18.9454 30.0372 19.6547 29.5305L18.4922 27.9031C17.3787 28.6985 16.5468 29.9064 15.9463 31.4253L17.8062 32.1606ZM19.6479 29.5354C20.3853 29.0179 21.2849 28.7402 22.3938 28.7402V26.7402C20.9311 26.7402 19.6171 27.1136 18.4991 27.8982L19.6479 29.5354ZM22.3938 28.7402C22.6967 28.7402 23.0419 28.7733 23.4324 28.8456L23.7966 26.879C23.3082 26.7886 22.8396 26.7402 22.3938 26.7402V28.7402ZM23.4387 28.8467C23.8465 28.9195 24.2935 29.0306 24.7811 29.183L25.3776 27.274C24.8235 27.1009 24.294 26.9678 23.7903 26.8779L23.4387 28.8467ZM26.0788 28.1941C26.0465 27.2579 26.0305 26.4479 26.0305 25.7627H24.0305C24.0305 26.4772 24.0471 27.3112 24.0799 28.263L26.0788 28.1941ZM26.0305 25.7627C26.0305 23.3343 26.5183 21.4646 27.4098 20.0779L25.7274 18.9964C24.5681 20.7997 24.0305 23.0804 24.0305 25.7627H26.0305ZM27.4084 20.08C28.3245 18.6629 30.1517 17.0823 33.0366 15.3674L32.0147 13.6482C29.0402 15.4164 26.896 17.1886 25.7288 18.9942L27.4084 20.08ZM32.4231 13.5131C29.7598 13.7875 27.4764 13.9229 25.5676 13.9229V15.9229C27.5651 15.9229 29.9204 15.7815 32.6281 15.5025L32.4231 13.5131ZM25.5676 13.9229C23.5908 13.9229 21.9481 13.6421 20.6132 13.1141L19.8775 14.9738C21.5049 15.6176 23.4103 15.9229 25.5676 15.9229V13.9229ZM20.6261 13.1193C19.7206 12.7464 19.0936 12.1768 18.6895 11.4065L16.9184 12.3356C17.556 13.551 18.5566 14.43 19.8646 14.9686L20.6261 13.1193ZM18.6926 11.4125C18.2615 10.5772 17.9682 9.35802 17.8747 7.68913L15.8778 7.8011C15.9795 9.61528 16.3048 11.1468 16.9153 12.3297L18.6926 11.4125ZM35.79 14.0003C35.066 15.2294 34.5482 16.3466 34.2721 17.3408L36.1991 17.876C36.4112 17.1124 36.8375 16.1625 37.5132 15.0153L35.79 14.0003ZM34.2702 17.3475C33.9261 18.6208 33.7473 19.8324 33.7473 20.9775H35.7473C35.7473 20.0393 35.894 19.0049 36.201 17.8693L34.2702 17.3475ZM33.7475 20.9978L33.9428 30.617L35.9424 30.5764L35.7471 20.9572L33.7475 20.9978ZM33.9426 30.5967C33.9426 31.6622 33.6771 32.7761 33.1137 33.9474L34.9161 34.8143C35.5896 33.414 35.9426 32.0052 35.9426 30.5967H33.9426ZM33.1174 33.9397C32.7108 34.767 31.9035 35.8533 30.6256 37.2111L32.082 38.5818C33.4081 37.1728 34.3749 35.9153 34.9123 34.822L33.1174 33.9397ZM31.516 38.8832C33.8769 38.4951 35.6219 38.3198 36.7851 38.3349L36.8111 36.335C35.4678 36.3176 33.5832 36.5166 31.1916 36.9097L31.516 38.8832ZM36.7806 38.3348L38.1722 38.3592L38.2072 36.3595L36.8156 36.3351L36.7806 38.3348ZM39.1897 37.3594V14.5078H37.1897V37.3594H39.1897ZM38.1897 13.5078H36.6516V15.5078H38.1897V13.5078ZM38.8587 24.7002C39.8891 25.4265 40.8356 25.9625 41.6877 26.2655L42.3577 24.381C41.7449 24.1631 40.9662 23.7388 40.011 23.0655L38.8587 24.7002ZM41.6942 26.2677C42.5574 26.568 43.4751 26.7139 44.4397 26.7139V24.7139C43.6791 24.7139 42.9854 24.5993 42.3512 24.3787L41.6942 26.2677ZM44.4397 26.7139C45.4043 26.7139 46.322 26.568 47.1852 26.2677L46.5282 24.3787C45.894 24.5993 45.2003 24.7139 44.4397 24.7139V26.7139ZM47.2033 26.2612C48.0561 25.9461 49.0095 25.4185 50.0543 24.7107L48.9326 23.0549C47.9591 23.7143 47.1546 24.147 46.51 24.3852L47.2033 26.2612ZM50.4899 23.7987C50.1746 20.0657 49.1985 17.2375 47.2929 15.6856L46.0299 17.2363C47.2818 18.2559 48.1937 20.3757 48.497 23.967L50.4899 23.7987ZM47.2976 15.6895C45.4614 14.175 42.7786 13.5078 39.4348 13.5078V15.5078C42.5689 15.5078 44.7038 16.1427 46.0251 17.2324L47.2976 15.6895ZM38.4348 14.5078V23.8828H40.4348V14.5078H38.4348ZM39.9323 32.8069C41.0045 32.192 41.8717 31.8024 42.5468 31.6055L41.9868 29.6855C41.0995 29.9443 40.0786 30.4174 38.9373 31.072L39.9323 32.8069ZM42.5651 31.6C43.2379 31.3897 43.9905 31.2793 44.8303 31.2793V29.2793C43.8147 29.2793 42.8583 29.413 41.9686 29.691L42.5651 31.6ZM44.8303 31.2793C45.6404 31.2793 46.3732 31.3823 47.0351 31.5795L47.606 29.6627C46.7379 29.4041 45.8106 29.2793 44.8303 29.2793V31.2793ZM47.054 31.5849C47.7112 31.7667 48.5523 32.1322 49.5903 32.7141L50.5684 30.9695C49.4579 30.347 48.4599 29.8987 47.5871 29.6573L47.054 31.5849ZM51.0774 31.7792L50.6623 25.163L48.6663 25.2882L49.0813 31.9044L51.0774 31.7792ZM49.1439 24.3716C48.139 24.984 47.3112 25.3804 46.6503 25.5913L47.2584 27.4966C48.1274 27.2192 49.1063 26.7367 50.1847 26.0795L49.1439 24.3716ZM46.6632 25.5873C46.0213 25.7826 45.299 25.8857 44.4885 25.8857V27.8857C45.4685 27.8857 46.39 27.761 47.2455 27.5006L46.6632 25.5873ZM44.4885 25.8857C43.7348 25.8857 42.9851 25.7652 42.2358 25.5202L41.6143 27.4212C42.5577 27.7296 43.517 27.8857 44.4885 27.8857V25.8857ZM42.2358 25.5202C41.4875 25.2756 40.7414 24.9047 39.9971 24.3987L38.8725 26.0525C39.7559 26.6532 40.6699 27.1124 41.6143 27.4212L42.2358 25.5202ZM38.4348 25.2256V31.9395H40.4348V25.2256H38.4348ZM39.3531 38.4293C41.3201 38.5905 42.89 38.7901 44.0752 39.024L44.4624 37.0619C43.1737 36.8075 41.5209 36.6003 39.5165 36.436L39.3531 38.4293ZM44.0899 39.0268C45.2932 39.2456 47.2075 39.7226 49.8566 40.4702L50.3998 38.5454C47.7429 37.7956 45.7509 37.2961 44.4477 37.0591L44.0899 39.0268ZM51.1281 39.5211C51.1605 37.0711 51.177 35.7894 51.177 35.6992H49.177C49.177 35.6992 49.177 35.7046 49.1768 35.7196C49.1767 35.733 49.1765 35.7513 49.1763 35.7747C49.1758 35.8213 49.175 35.8867 49.174 35.971C49.172 36.1395 49.1689 36.3823 49.1649 36.6996C49.1567 37.3341 49.1445 38.2658 49.1283 39.4946L51.1281 39.5211ZM51.177 35.6992C51.177 35.4885 51.1602 34.6904 51.1279 33.3317L49.1285 33.3793C49.1612 34.7549 49.177 35.5193 49.177 35.6992H51.177ZM50.6947 32.5314C49.612 31.7871 48.6101 31.2382 47.6972 30.9215L47.0416 32.811C47.7237 33.0476 48.561 33.4916 49.5616 34.1795L50.6947 32.5314ZM47.7032 30.9236C46.8028 30.6047 45.8339 30.4512 44.8059 30.4512V32.4512C45.6334 32.4512 46.3735 32.5744 47.0355 32.8088L47.7032 30.9236ZM44.8059 30.4512C43.7631 30.4512 42.7744 30.6042 41.8473 30.9194L42.4911 32.813C43.1916 32.5748 43.9607 32.4512 44.8059 32.4512V30.4512ZM41.8414 30.9215C40.926 31.239 39.9305 31.7895 38.8622 32.5356L40.0074 34.1753C40.9899 33.4891 41.8173 33.0468 42.497 32.811L41.8414 30.9215ZM38.4348 33.3555V37.4326H40.4348V33.3555H38.4348ZM70.5139 17.9746L71.2732 17.3238L70.76 16.7251L70.0581 17.0845L70.5139 17.9746ZM77.3987 26.0068L77.9726 26.8257L78.8753 26.193L78.1579 25.356L77.3987 26.0068ZM66.4612 33.6729L65.8872 32.854L65.4612 33.1526V33.6729H66.4612ZM66.4612 38.1162H65.4612V38.7954L66.0926 39.0458L66.4612 38.1162ZM72.1252 40.3623L71.7566 41.2919L72.2499 41.4875L72.6884 41.1886L72.1252 40.3623ZM75.9583 37.75L76.7647 37.1586L76.1934 36.3796L75.3951 36.9237L75.9583 37.75ZM76.4954 38.4824L77.0675 39.3026L77.9073 38.7168L77.3018 37.8911L76.4954 38.4824ZM68.5852 44L68.1132 44.8816L68.6541 45.1712L69.1573 44.8202L68.5852 44ZM60.1624 40.9727H59.1624V41.783L59.9551 41.9509L60.1624 40.9727ZM60.1624 40.3623L59.6553 39.5004L59.1624 39.7904V40.3623H60.1624ZM61.261 39.166L60.3325 38.7946L60.3292 38.803L60.326 38.8114L61.261 39.166ZM61.554 22.0762L61.2138 21.1358L60.554 21.3745V22.0762H61.554ZM65.3625 20.5625L65.7742 21.4739L65.7854 21.4687L65.3625 20.5625ZM66.803 20.7822L67.5455 20.1124L67.036 19.5477L66.3558 19.8878L66.803 20.7822ZM66.4612 20.9531L66.014 20.0587L65.4612 20.3351V20.9531H66.4612ZM66.4612 32.0127H65.4612V33.9328L67.0344 32.8321L66.4612 32.0127ZM72.8821 27.5205L73.4553 28.3399L74.3828 27.691L73.6246 26.8507L72.8821 27.5205ZM69.7547 18.6254L76.6394 26.6576L78.1579 25.356L71.2732 17.3238L69.7547 18.6254ZM76.8247 25.1879L65.8872 32.854L67.0351 34.4917L77.9726 26.8257L76.8247 25.1879ZM65.4612 33.6729V38.1162H67.4612V33.6729H65.4612ZM66.0926 39.0458L71.7566 41.2919L72.4939 39.4327L66.8298 37.1866L66.0926 39.0458ZM72.6884 41.1886L76.5214 38.5763L75.3951 36.9237L71.5621 39.536L72.6884 41.1886ZM75.1518 38.3414L75.689 39.0738L77.3018 37.8911L76.7647 37.1586L75.1518 38.3414ZM75.9233 37.6622L68.0131 43.1798L69.1573 44.8202L77.0675 39.3026L75.9233 37.6622ZM69.0572 43.1184C67.4266 42.2455 66.0515 41.6015 64.9439 41.2035L64.2675 43.0856C65.2433 43.4363 66.5211 44.0293 68.1132 44.8816L69.0572 43.1184ZM64.9439 41.2035C63.8389 40.8063 62.3063 40.4047 60.3696 39.9944L59.9551 41.9509C61.8596 42.3544 63.2892 42.734 64.2675 43.0856L64.9439 41.2035ZM61.1624 40.9727V40.3623H59.1624V40.9727H61.1624ZM60.6694 41.2242C61.3647 40.8152 61.9164 40.2578 62.196 39.5207L60.326 38.8114C60.2475 39.0182 60.0668 39.2584 59.6553 39.5004L60.6694 41.2242ZM62.1895 39.5374C62.3427 39.1544 62.4256 38.6535 62.4763 38.1119C62.5292 37.5485 62.554 36.8554 62.554 36.041H60.554C60.554 36.8217 60.5299 37.447 60.4851 37.9252C60.4382 38.4253 60.3746 38.6893 60.3325 38.7946L62.1895 39.5374ZM62.554 36.041V22.0762H60.554V36.041H62.554ZM61.8941 23.0165C63.4381 22.4581 64.7335 21.9438 65.7741 21.4739L64.951 19.6511C63.9734 20.0926 62.7297 20.5875 61.2138 21.1358L61.8941 23.0165ZM65.7854 21.4687C66.538 21.1175 68.2732 20.2454 70.9697 18.8647L70.0581 17.0845C67.3509 18.4707 65.6519 19.3239 64.9397 19.6563L65.7854 21.4687ZM66.3558 19.8878L66.014 20.0587L66.9084 21.8476L67.2502 21.6767L66.3558 19.8878ZM65.4612 20.9531V32.0127H67.4612V20.9531H65.4612ZM67.0344 32.8321L73.4553 28.3399L72.3088 26.7011L65.8879 31.1933L67.0344 32.8321ZM73.6246 26.8507L67.5455 20.1124L66.0605 21.4521L72.1396 28.1904L73.6246 26.8507ZM112.018 19.3906L112.699 18.6587L112.011 18.0179L111.329 18.6656L112.018 19.3906ZM112.726 20.0498L113.385 20.8016L114.217 20.0719L113.407 19.3179L112.726 20.0498ZM110.846 22.0029L110.014 21.4482L110.007 21.458L110.001 21.4679L110.846 22.0029ZM113.068 38.9707L113.851 38.3493L113.239 37.5773L112.458 38.1781L113.068 38.9707ZM113.629 39.6787L114.253 40.4606L115.032 39.8388L114.413 39.0573L113.629 39.6787ZM108.209 44L107.592 44.7871L108.215 45.2747L108.833 44.7819L108.209 44ZM105.865 41.6562L104.997 42.1524L105 42.1573L105.865 41.6562ZM105.084 24.0293H106.084V23.5708L105.737 23.2716L105.084 24.0293ZM102.618 21.9053L103.271 21.1476L102.595 20.565L101.939 21.1712L102.618 21.9053ZM98.7122 25.5186L98.0331 24.7845L97.7122 25.0813V25.5186H98.7122ZM98.7122 38.751H97.7122V39.1467L97.9829 39.4352L98.7122 38.751ZM100.568 40.7285L101.176 41.5225L102.053 40.8504L101.297 40.0443L100.568 40.7285ZM96.2952 44L95.6916 44.7973L96.2986 45.2569L96.9031 44.794L96.2952 44ZM91.9739 40.7285L91.231 40.059L90.5017 40.8683L91.3703 41.5258L91.9739 40.7285ZM93.7561 38.751L94.4989 39.4204L94.7561 39.1351V38.751H93.7561ZM93.4387 23.8828L94.326 23.4214L94.3225 23.4149L93.4387 23.8828ZM91.3147 21.9053L91.8777 21.0788L91.2509 20.6519L90.6707 21.1402L91.3147 21.9053ZM87.4573 25.1523L86.8133 24.3873L86.4573 24.687V25.1523H87.4573ZM87.4573 38.751H86.4573V39.1504L86.7325 39.44L87.4573 38.751ZM89.3372 40.7285L89.9429 41.5242L90.8307 40.8482L90.0619 40.0395L89.3372 40.7285ZM85.0403 44L84.441 44.8005L85.0454 45.253L85.6461 44.7956L85.0403 44ZM80.6702 40.7285L79.9498 40.0349L79.1644 40.8505L80.0709 41.5291L80.6702 40.7285ZM82.5745 38.751L83.2948 39.4446L83.5745 39.1542V38.751H82.5745ZM82.0129 22.7598L82.8622 22.2318L82.8582 22.2254L82.8541 22.219L82.0129 22.7598ZM79.425 23.0771L78.593 23.6318L79.1777 24.5088L80.0227 23.8789L79.425 23.0771ZM78.8879 22.2715L78.2598 21.4934L77.5496 22.0668L78.0559 22.8262L78.8879 22.2715ZM84.2102 17.9746L84.7869 17.1576L84.1698 16.722L83.582 17.1965L84.2102 17.9746ZM86.4563 19.9033L85.6656 20.5155L85.6766 20.5297L85.6881 20.5435L86.4563 19.9033ZM87.3108 21.5146L88.2852 21.2898L88.2802 21.2683L88.2743 21.247L87.3108 21.5146ZM87.4573 24.0293H86.4573V26.1625L88.097 24.7979L87.4573 24.0293ZM94.7327 17.9746L95.3554 17.1922L94.7186 16.6853L94.093 17.206L94.7327 17.9746ZM98.7122 24.2979L97.7142 24.361L97.8467 26.4555L99.3899 25.0332L98.7122 24.2979ZM105.573 17.9746L106.255 17.2434L105.577 16.6108L104.895 17.2393L105.573 17.9746ZM109.576 21.71L108.894 22.4412L109.583 23.0834L110.265 22.435L109.576 21.71ZM111.336 20.1225L112.044 20.7817L113.407 19.3179L112.699 18.6587L111.336 20.1225ZM112.066 19.298C111.129 20.1207 110.417 20.8438 110.014 21.4482L111.678 22.5576C111.926 22.1855 112.468 21.6065 113.385 20.8016L112.066 19.298ZM110.001 21.4679C109.637 22.0434 109.38 22.6453 109.255 23.2717L111.216 23.6639C111.286 23.3136 111.437 22.939 111.691 22.538L110.001 21.4679ZM109.255 23.2717C109.135 23.8736 109.089 24.975 109.089 26.4707H111.089C111.089 24.9391 111.141 24.0385 111.216 23.6639L109.255 23.2717ZM109.089 26.4707V36.627H111.089V26.4707H109.089ZM109.089 36.627C109.089 37.3236 109.125 37.9347 109.205 38.4473C109.282 38.9415 109.412 39.4309 109.658 39.8209L111.35 38.7553C111.319 38.7058 111.242 38.532 111.181 38.1391C111.123 37.7647 111.089 37.2649 111.089 36.627H109.089ZM109.658 39.8209C109.826 40.0871 110.023 40.3454 110.262 40.5468C110.502 40.7491 110.849 40.9473 111.285 40.9473V38.9473C111.478 38.9473 111.572 39.0355 111.552 39.0182C111.544 39.0117 111.521 38.9903 111.484 38.9448C111.447 38.8999 111.402 38.838 111.35 38.7553L109.658 39.8209ZM111.285 40.9473C111.721 40.9473 112.142 40.7589 112.468 40.5801C112.828 40.3827 113.234 40.1046 113.677 39.7633L112.458 38.1781C112.055 38.4879 111.741 38.698 111.507 38.8261C111.239 38.9729 111.192 38.9473 111.285 38.9473V40.9473ZM112.284 39.5921L112.846 40.3001L114.413 39.0573L113.851 38.3493L112.284 39.5921ZM113.006 38.8968L107.586 43.2181L108.833 44.7819L114.253 40.4606L113.006 38.8968ZM108.826 43.2129C107.634 42.2784 106.986 41.5961 106.731 41.1552L105 42.1573C105.461 42.9534 106.376 43.8336 107.592 44.7871L108.826 43.2129ZM106.734 41.1601C106.297 40.396 106.084 39.5981 106.084 38.751H104.084C104.084 39.9547 104.392 41.0936 104.997 42.1524L106.734 41.1601ZM106.084 38.751V24.0293H104.084V38.751H106.084ZM105.737 23.2716L103.271 21.1476L101.966 22.6629L104.432 24.787L105.737 23.2716ZM101.939 21.1712L98.0331 24.7845L99.3912 26.2527L103.297 22.6394L101.939 21.1712ZM97.7122 25.5186V38.751H99.7122V25.5186H97.7122ZM97.9829 39.4352L99.8384 41.4128L101.297 40.0443L99.4414 38.0667L97.9829 39.4352ZM99.9597 39.9345L95.6872 43.206L96.9031 44.794L101.176 41.5225L99.9597 39.9345ZM96.8988 43.2027L92.5775 39.9312L91.3703 41.5258L95.6916 44.7973L96.8988 43.2027ZM92.7167 41.398L94.4989 39.4204L93.0133 38.0815L91.231 40.059L92.7167 41.398ZM94.7561 38.751V26.6172H92.7561V38.751H94.7561ZM94.7561 26.6172C94.7561 25.8889 94.7291 25.2649 94.6701 24.7563C94.6143 24.2759 94.5198 23.7943 94.3259 23.4215L92.5515 24.3442C92.5512 24.3436 92.5577 24.3563 92.5685 24.3872C92.579 24.4175 92.5917 24.4599 92.6054 24.5166C92.633 24.6314 92.6601 24.786 92.6834 24.9869C92.7302 25.3897 92.7561 25.9294 92.7561 26.6172H94.7561ZM94.3225 23.4149C93.9056 22.6274 93.0128 21.852 91.8777 21.0788L90.7517 22.7318C91.8627 23.4885 92.3859 24.0314 92.5549 24.3507L94.3225 23.4149ZM90.6707 21.1402L86.8133 24.3873L88.1013 25.9174L91.9587 22.6703L90.6707 21.1402ZM86.4573 25.1523V38.751H88.4573V25.1523H86.4573ZM86.7325 39.44L88.6124 41.4175L90.0619 40.0395L88.1821 38.062L86.7325 39.44ZM88.7314 39.9329L84.4345 43.2044L85.6461 44.7956L89.9429 41.5242L88.7314 39.9329ZM85.6396 43.1995L81.2694 39.928L80.0709 41.5291L84.441 44.8005L85.6396 43.1995ZM81.3905 41.4222L83.2948 39.4446L81.8541 38.0573L79.9498 40.0349L81.3905 41.4222ZM83.5745 38.751V25.6895H81.5745V38.751H83.5745ZM83.5745 25.6895C83.5745 24.2939 83.3899 23.0806 82.8622 22.2318L81.1637 23.2877C81.3847 23.6433 81.5745 24.3832 81.5745 25.6895H83.5745ZM82.8541 22.219C82.6797 21.9476 82.4774 21.687 82.2388 21.4846C82.0022 21.2838 81.6521 21.0762 81.2073 21.0762V23.0762C81.0066 23.0762 80.9129 22.9825 80.9448 23.0096C80.9565 23.0195 80.9837 23.0451 81.0251 23.0954C81.0659 23.1451 81.115 23.2123 81.1718 23.3005L82.8541 22.219ZM81.2073 21.0762C80.9625 21.0762 80.7417 21.1416 80.579 21.2028C80.4051 21.2682 80.2276 21.356 80.0523 21.4545C79.7018 21.6514 79.2907 21.93 78.8274 22.2754L80.0227 23.8789C80.4546 23.5569 80.7881 23.3351 81.0317 23.1983C81.1534 23.13 81.2353 23.0927 81.2832 23.0747C81.3423 23.0525 81.3055 23.0762 81.2073 23.0762V21.0762ZM80.2571 22.5224L79.72 21.7168L78.0559 22.8262L78.593 23.6318L80.2571 22.5224ZM79.5161 23.0496L84.8384 18.7527L83.582 17.1965L78.2598 21.4934L79.5161 23.0496ZM83.6335 18.7916C84.729 19.5649 85.3721 20.1365 85.6656 20.5155L87.247 19.2911C86.7592 18.661 85.9049 17.9468 84.7869 17.1576L83.6335 18.7916ZM85.6881 20.5435C86.0084 20.9279 86.2242 21.3392 86.3473 21.7823L88.2743 21.247C88.0719 20.5183 87.718 19.8553 87.2245 19.2631L85.6881 20.5435ZM86.3364 21.7395C86.4044 22.0343 86.4573 22.7597 86.4573 24.0293H88.4573C88.4573 22.7924 88.4125 21.8414 88.2852 21.2898L86.3364 21.7395ZM88.097 24.7979L95.3723 18.7433L94.093 17.206L86.8176 23.2607L88.097 24.7979ZM94.1099 18.757C95.692 20.0162 96.6071 20.9703 96.9957 21.631L98.7196 20.617C98.1317 19.6176 96.9634 18.472 95.3554 17.1922L94.1099 18.757ZM96.9957 21.631C97.3822 22.2881 97.6395 23.1812 97.7142 24.361L99.7102 24.2347C99.6221 22.8429 99.3097 21.6201 98.7196 20.617L96.9957 21.631ZM99.3899 25.0332L106.25 18.7099L104.895 17.2393L98.0344 23.5625L99.3899 25.0332ZM104.89 18.7058L108.894 22.4412L110.259 20.9788L106.255 17.2434L104.89 18.7058ZM110.265 22.435L112.707 20.1156L111.329 18.6656L108.888 20.985L110.265 22.435ZM133.893 21.5391H134.893V20.7556L134.132 20.5681L133.893 21.5391ZM133.893 39.8008L134.27 40.7271L134.893 40.4736V39.8008H133.893ZM128.595 42.2422L129.089 43.1115L129.098 43.1064L128.595 42.2422ZM126.202 44L125.684 44.8549L126.324 45.2438L126.877 44.7378L126.202 44ZM120.343 41.0215L120.003 41.962L120.006 41.963L120.343 41.0215ZM116.364 40.2891L115.469 40.7363L115.732 41.2623L116.32 41.2881L116.364 40.2891ZM116.119 39.8008L115.475 39.0359L114.873 39.5433L115.225 40.248L116.119 39.8008ZM117.291 38.3848L116.367 38.004L116.362 38.0149L116.358 38.0258L117.291 38.3848ZM117.633 22.1738L117.317 21.2251L116.633 21.4531V22.1738H117.633ZM125.275 17.9746L125.827 17.1408L125.198 16.7248L124.625 17.2141L125.275 17.9746ZM122.565 37.4326H121.565V38.1034L122.185 38.3579L122.565 37.4326ZM128.937 40.0449L128.557 40.9702L129.937 41.5357V40.0449H128.937ZM128.937 24.5176H129.937V23.8788L129.357 23.6103L128.937 24.5176ZM124.689 22.6865L124.349 23.6271L124.356 23.6295L124.689 22.6865ZM122.565 22.1494L122.738 21.1646L121.565 20.9575V22.1494H122.565ZM132.893 21.5391V39.8008H134.893V21.5391H132.893ZM133.516 38.8745C131.067 39.8703 129.247 40.7058 128.092 41.3779L129.098 43.1064C130.124 42.5091 131.835 41.717 134.27 40.7271L133.516 38.8745ZM128.101 41.3729C127.2 41.8848 126.343 42.5162 125.527 43.2622L126.877 44.7378C127.592 44.0841 128.329 43.5435 129.089 43.1115L128.101 41.3729ZM126.721 43.1451C124.337 41.698 122.318 40.6662 120.68 40.08L120.006 41.963C121.461 42.4836 123.348 43.4374 125.684 44.8549L126.721 43.1451ZM120.683 40.0809C119.4 39.6176 117.971 39.3588 116.407 39.29L116.32 41.2881C117.718 41.3496 118.943 41.579 120.003 41.962L120.683 40.0809ZM117.258 39.8419L117.014 39.3536L115.225 40.248L115.469 40.7363L117.258 39.8419ZM116.764 40.5657C117.424 40.0092 117.971 39.4043 118.225 38.7437L116.358 38.0258C116.286 38.2116 116.051 38.5507 115.475 39.0359L116.764 40.5657ZM118.216 38.7655C118.525 38.0157 118.633 36.9065 118.633 35.5771H116.633C116.633 36.8845 116.514 37.6471 116.367 38.004L118.216 38.7655ZM118.633 35.5771V22.1738H116.633V35.5771H118.633ZM117.949 23.1225C121.034 22.0942 123.698 20.6354 125.924 18.7351L124.625 17.2141C122.619 18.9271 120.189 20.2678 117.317 21.2251L117.949 23.1225ZM124.723 18.8085C127.152 20.4164 130.137 21.6434 133.654 22.51L134.132 20.5681C130.78 19.742 128.02 18.5927 125.827 17.1408L124.723 18.8085ZM122.185 38.3579L128.557 40.9702L129.316 39.1197L122.944 36.5074L122.185 38.3579ZM129.937 40.0449V24.5176H127.937V40.0449H129.937ZM129.357 23.6103C127.357 22.6831 125.901 22.0541 125.022 21.7435L124.356 23.6295C125.136 23.9049 126.513 24.4966 128.516 25.4249L129.357 23.6103ZM125.028 21.746C124.373 21.5095 123.607 21.3178 122.738 21.1646L122.391 23.1342C123.183 23.274 123.832 23.4404 124.349 23.6271L125.028 21.746ZM121.565 22.1494V37.4326H123.565V22.1494H121.565Z" fill="white"/>
<path d="M7.86464 1C-22.3218 127.813 93.4871 86.8741 203 25.9245" stroke="white" strokeWidth="5"/>
</svg>
