<svg width="1438" height="500" viewBox="0 0 1438 500" fill="none" xmlns="http://www.w3.org/2000/svg">
<path d="M0 98.9583C0 78.8333 46.9747 62.5 104.854 62.5H1333.15C1391.03 62.5 1438 78.8333 1438 98.9583V401.042C1438 410.711 1426.95 419.984 1407.29 426.822C1387.62 433.659 1360.95 437.5 1333.15 437.5H104.854C77.0451 437.5 50.375 433.659 30.7111 426.822C11.0471 419.984 0 410.711 0 401.042L0 98.9583ZM104.854 93.75C100.881 93.75 97.0714 94.2987 94.2623 95.2755C91.4532 96.2522 89.875 97.577 89.875 98.9583V401.042C89.875 403.917 96.5857 406.25 104.854 406.25H1333.15C1337.12 406.25 1340.93 405.701 1343.74 404.725C1346.55 403.748 1348.12 402.423 1348.12 401.042V98.9583C1348.12 97.577 1346.55 96.2522 1343.74 95.2755C1340.93 94.2987 1337.12 93.75 1333.15 93.75H104.854Z" fill="black"/>
<path d="M539.25 324.667V175.333C539.259 173.465 540.713 171.632 543.46 170.026C546.207 168.42 550.145 167.101 554.863 166.206C559.58 165.311 564.903 164.874 570.273 164.941C575.643 165.007 580.863 165.574 585.386 166.583L919.481 241.229C923.712 242.172 927.192 243.469 929.603 245.002C932.014 246.534 933.278 248.253 933.278 250C933.278 251.747 932.014 253.466 929.603 254.999C927.192 256.531 923.712 257.828 919.481 258.771L585.386 333.438C580.863 334.446 575.643 335.014 570.273 335.08C564.903 335.147 559.58 334.71 554.863 333.815C550.145 332.92 546.207 331.601 543.46 329.995C540.713 328.389 539.259 326.556 539.25 324.688V324.667Z" fill="black"/>
</svg>
